<?xml version="1.0" standalone="no"?>
<!DOCTYPE svg PUBLIC "-//W3C//DTD SVG 20010904//EN"
 "http://www.w3.org/TR/2001/REC-SVG-20010904/DTD/svg10.dtd">
<svg version="1.0" xmlns="http://www.w3.org/2000/svg"
 width="237.000000pt" height="213.000000pt" viewBox="0 0 237.000000 213.000000"
 preserveAspectRatio="xMidYMid meet">
<g transform="translate(0.000000,213.000000) scale(0.100000,-0.100000)"
fill="#000000" stroke="none">
<path d="M1352 2024 c-1 -11 -14 -45 -29 -75 -21 -41 -90 -118 -299 -329 -221
-224 -277 -286 -302 -336 -34 -68 -52 -155 -44 -222 6 -57 22 -64 22 -9 0 26
10 63 24 92 22 43 23 50 10 69 -17 25 -18 38 -1 34 6 -2 13 2 14 7 0 6 -4 9
-10 7 -7 -2 -6 2 1 11 7 8 9 17 5 21 -4 4 0 4 10 0 13 -5 16 -2 11 10 -4 12
-2 15 9 10 8 -3 18 -1 22 5 3 7 0 8 -9 5 -23 -9 -19 13 4 26 11 6 20 17 20 24
0 22 25 37 38 24 9 -9 7 -18 -11 -37 l-22 -26 26 23 c14 12 32 22 40 23 8 0 4
4 -8 9 -25 10 -32 33 -9 28 8 -2 14 2 13 7 -1 6 -6 9 -10 7 -5 -1 -5 2 -2 8 4
6 13 9 21 6 8 -3 11 0 7 10 -4 10 0 12 11 8 12 -5 19 0 23 15 3 12 11 20 19
19 7 -2 13 2 12 7 0 6 -4 9 -10 7 -5 -1 -6 2 -3 8 4 6 13 9 21 6 8 -3 11 0 7
10 -4 10 0 12 11 8 12 -5 19 0 23 15 3 12 11 20 19 19 7 -2 13 2 12 7 0 6 -4
9 -10 7 -5 -1 -6 2 -3 8 4 6 13 9 21 6 8 -3 11 0 7 10 -4 10 0 12 11 8 10 -4
18 1 23 12 3 11 11 22 17 26 6 4 11 11 11 15 0 11 39 49 65 63 11 6 18 15 15
19 -5 9 23 26 37 23 5 -1 7 1 7 6 -4 23 3 34 17 28 12 -5 15 -2 10 10 -4 11
-2 15 8 11 10 -4 13 -1 9 9 -3 7 0 14 6 14 10 0 15 -14 12 -33 -1 -5 4 -5 10
-2 8 6 8 2 0 -14 -7 -11 -16 -21 -22 -21 -6 0 -8 -4 -5 -9 6 -9 -22 -26 -37
-22 -5 1 -6 -3 -2 -9 3 -5 1 -10 -5 -10 -6 0 -8 -5 -5 -11 4 -6 -2 -13 -14
-16 -11 -3 -18 -9 -15 -14 3 -5 0 -9 -6 -9 -6 0 -8 -5 -4 -12 4 -7 3 -8 -4 -4
-6 4 -17 -2 -23 -13 -7 -11 -19 -17 -27 -13 -10 3 -13 1 -8 -6 4 -8 0 -12 -12
-12 -10 0 -29 -12 -43 -27 l-24 -28 27 24 c15 13 33 21 40 18 11 -4 11 -6 0
-6 -7 -1 -10 -6 -7 -11 4 -6 2 -9 -3 -8 -12 4 -82 -69 -74 -78 4 -4 2 -4 -5 0
-6 3 -18 -3 -26 -14 -7 -11 -17 -17 -20 -13 -4 3 -7 -1 -7 -11 0 -9 -7 -19
-15 -22 -8 -4 -12 -11 -8 -17 3 -5 1 -7 -5 -3 -6 3 -17 -3 -25 -14 -7 -11 -17
-17 -22 -12 -5 4 -5 2 -1 -5 3 -6 -3 -18 -14 -26 -11 -7 -17 -17 -12 -22 4 -5
2 -6 -4 -2 -12 7 -71 -52 -66 -67 2 -5 -5 -3 -14 5 -13 10 -16 10 -10 1 5 -8
-2 -26 -18 -47 -14 -18 -23 -35 -19 -37 5 -3 132 122 283 276 325 332 332 343
327 473 -1 48 -4 79 -5 67z m-8 -120 c3 -8 2 -12 -4 -9 -6 3 -10 1 -10 -5 0
-6 -4 -8 -10 -5 -6 4 -5 11 3 20 15 18 14 18 21 -1z m-17 -32 c8 -5 9 -12 2
-22 -8 -13 -10 -13 -19 0 -18 27 -9 39 17 22z m-247 -232 c0 -5 -5 -10 -11
-10 -5 0 -7 5 -4 10 3 6 8 10 11 10 2 0 4 -4 4 -10z m-80 -80 c0 -5 -5 -10
-11 -10 -5 0 -7 5 -4 10 3 6 8 10 11 10 2 0 4 -4 4 -10z m-80 -80 c0 -5 -5
-10 -11 -10 -5 0 -7 5 -4 10 3 6 8 10 11 10 2 0 4 -4 4 -10z m-204 -307 c-15
-28 -16 -28 -12 -3 3 14 5 34 6 45 1 18 1 19 11 3 7 -13 6 -25 -5 -45z"/>
<path d="M1347 1780 c-13 -64 -52 -111 -308 -369 -221 -222 -260 -266 -293
-329 -47 -91 -58 -169 -32 -237 25 -63 33 -63 28 1 -4 47 0 64 28 120 27 56
72 107 295 333 297 303 298 304 293 436 -2 65 -4 73 -11 45z m-4 -106 c9 -10
-4 -34 -16 -27 -5 3 -7 1 -3 -5 8 -13 -13 -62 -27 -62 -5 0 -3 8 4 18 11 14
11 15 -1 5 -18 -16 -34 -17 -24 -1 5 7 3 8 -6 3 -10 -6 -8 -12 8 -24 18 -14
19 -19 8 -33 -7 -10 -17 -18 -21 -18 -4 0 -2 6 4 14 9 11 9 16 0 22 -7 4 -9 3
-5 -4 3 -6 2 -13 -3 -17 -6 -3 -8 -12 -4 -20 6 -17 -7 -20 -25 -5 -9 7 -9 7
-2 -2 11 -14 -7 -51 -21 -43 -5 4 -8 2 -7 -3 3 -10 -105 -122 -117 -122 -5 0
0 9 10 20 17 18 17 20 2 14 -9 -3 -17 -9 -18 -13 -4 -33 -12 -49 -38 -73 -28
-26 -70 -30 -54 -5 4 6 1 7 -7 2 -10 -6 -9 -11 5 -21 16 -12 15 -15 -9 -39
-18 -18 -33 -25 -44 -20 -13 5 -14 3 -5 -6 9 -9 3 -19 -25 -45 -20 -19 -41
-34 -47 -34 -5 0 -3 5 5 10 12 8 11 9 -5 7 -11 -2 -28 -8 -39 -12 -17 -7 -17
-9 -1 -17 9 -6 19 -7 22 -4 4 3 1 6 -6 6 -7 0 -9 5 -6 10 5 8 11 7 21 -1 13
-10 12 -14 -2 -30 -9 -10 -21 -16 -27 -12 -6 3 -7 1 -3 -6 9 -14 -20 -45 -34
-36 -5 3 -10 -1 -10 -10 0 -9 5 -13 11 -10 6 4 5 -2 -3 -14 -7 -12 -16 -21
-21 -21 -4 0 -5 -5 -1 -12 4 -7 3 -8 -4 -4 -7 4 -12 4 -13 -1 -2 -23 -8 -46
-14 -51 -7 -8 0 60 11 96 3 12 11 22 17 22 6 0 8 3 4 6 -3 4 2 14 11 23 10 9
11 12 3 6 -23 -16 5 34 42 72 25 27 33 31 46 20 14 -10 14 -10 3 5 -11 14 -9
20 13 43 14 16 25 24 25 19 0 -5 5 -1 11 9 6 9 14 15 20 12 5 -3 6 0 4 7 -6
15 39 60 49 51 3 -4 6 -1 6 6 0 7 6 11 14 8 10 -4 14 0 11 14 -3 12 2 19 12
19 9 0 14 3 10 6 -9 10 16 32 31 27 7 -3 10 0 7 9 -3 8 1 21 10 28 12 10 18
10 33 -1 14 -11 15 -11 5 1 -23 26 -13 34 12 10 14 -13 25 -19 25 -12 0 6 6
17 14 25 12 11 11 15 -8 27 -18 11 -19 11 -9 -1 14 -17 1 -45 -16 -34 -8 5 -9
11 -2 19 6 7 9 15 6 18 -3 3 4 13 15 23 19 18 57 14 45 -5 -3 -5 -4 -10 -1
-10 14 0 14 20 0 34 -14 15 -14 16 1 16 8 0 18 8 22 18 10 29 45 62 67 63 12
0 15 3 9 6 -10 3 -8 11 5 28 18 25 25 29 35 19z"/>
<path d="M895 1211 c-6 -11 13 -26 22 -17 4 3 1 6 -6 6 -7 0 -9 5 -6 10 3 6 4
10 1 10 -3 0 -7 -4 -11 -9z"/>
<path d="M1163 1705 c1 -11 -3 -19 -9 -18 -6 1 -11 -5 -11 -13 0 -10 7 -9 24
8 23 22 30 34 14 24 -5 -4 -12 0 -15 6 -3 7 -4 4 -3 -7z"/>
<path d="M1348 1562 c-17 -74 -49 -115 -285 -353 -191 -194 -248 -257 -268
-300 -44 -96 -27 -192 46 -253 38 -32 52 -26 20 8 -32 34 -38 95 -16 154 15
38 62 92 245 277 266 270 272 280 268 411 -2 67 -5 81 -10 56z m-14 -140 c-3
-15 -15 -35 -27 -45 -12 -10 -16 -16 -9 -12 15 8 -23 -59 -44 -75 -7 -7 -14
-9 -15 -4 0 5 -2 20 -5 32 -3 17 5 32 28 55 18 17 27 27 19 22 -10 -6 -12 -4
-7 4 6 9 11 9 21 1 10 -8 15 -8 21 1 4 7 3 9 -4 5 -11 -6 -10 7 3 36 11 26 24
12 19 -20z m-112 -109 c0 -4 4 -18 9 -30 6 -16 5 -22 -3 -20 -7 1 -13 -4 -14
-10 -1 -7 -2 -15 -3 -18 0 -3 -9 -1 -19 4 -14 8 -18 6 -19 -10 -1 -13 2 -17
10 -12 8 4 7 1 -1 -9 -7 -9 -26 -16 -43 -16 -25 1 -27 3 -16 16 9 13 9 14 0 8
-7 -4 -13 -2 -13 3 0 6 5 11 10 11 6 0 13 0 18 0 4 0 7 -5 7 -12 0 -6 7 -13
15 -15 13 -4 13 -3 0 6 -8 6 -11 11 -6 11 5 0 3 7 -5 16 -11 13 -7 21 27 54
38 37 45 40 46 23z m-121 -116 c-15 -19 -3 -29 20 -17 12 7 20 7 24 0 4 -6 1
-9 -7 -8 -7 2 -12 -3 -10 -9 1 -7 -4 -12 -10 -10 -7 1 -12 -4 -11 -10 2 -7
-15 -25 -37 -39 -31 -21 -44 -24 -52 -16 -9 9 -8 12 2 12 12 0 13 2 1 9 -10 7
-11 13 -2 30 10 18 15 19 32 10 12 -6 23 -8 27 -5 3 3 0 6 -6 6 -17 0 -15 20
5 42 19 21 41 25 24 5z m-93 -94 c-1 -5 3 -18 10 -29 12 -24 5 -34 -31 -47
-11 -4 -15 -12 -11 -19 5 -8 0 -7 -11 2 -15 12 -17 12 -10 1 5 -9 2 -19 -11
-28 -10 -8 -18 -17 -18 -21 1 -4 -2 -6 -7 -4 -5 1 -13 3 -18 5 -5 1 -9 -2 -9
-8 0 -5 4 -9 10 -7 5 1 8 -2 6 -8 -2 -7 -7 -11 -11 -11 -11 1 -44 -33 -40 -41
2 -4 -1 -9 -7 -13 -6 -4 -7 -11 -4 -17 4 -7 2 -8 -4 -4 -7 4 -12 1 -12 -9 0
-9 -4 -13 -10 -10 -6 3 -7 -1 -4 -10 3 -8 3 -27 0 -41 -5 -20 -10 -23 -20 -14
-14 10 -9 50 11 100 4 8 7 18 7 22 1 3 4 9 8 13 9 9 5 -16 -6 -35 -7 -12 -7
-13 5 -2 8 7 14 27 14 44 0 19 6 33 15 35 13 4 13 3 0 -7 -13 -10 -13 -11 0
-8 8 3 15 15 15 29 0 23 18 32 40 20 6 -3 2 2 -8 12 -18 16 -11 23 18 17 5 -1
7 2 2 6 -11 12 23 43 41 37 9 -4 13 -2 9 4 -7 11 19 53 34 53 5 0 8 -3 7 -7z"/>
<path d="M1262 1361 c-11 -7 -11 -9 0 -14 9 -3 15 1 15 9 0 8 -1 14 -1 14 -1
0 -7 -4 -14 -9z"/>
<path d="M1181 1277 c-8 -10 -7 -14 2 -14 8 0 14 6 14 14 0 7 -1 13 -2 13 -2
0 -8 -6 -14 -13z"/>
<path d="M1074 1124 c-18 -14 -18 -15 4 -4 12 6 22 13 22 15 0 8 -5 6 -26 -11z"/>
<path d="M986 1068 c3 -5 10 -6 15 -3 13 9 11 12 -6 12 -8 0 -12 -4 -9 -9z"/>
<path d="M1000 1050 c-9 -6 -10 -10 -3 -10 6 0 15 5 18 10 8 12 4 12 -15 0z"/>
<path d="M930 1011 c0 -6 4 -13 10 -16 6 -3 7 1 4 9 -7 18 -14 21 -14 7z"/>
<path d="M999 1523 l-24 -28 30 25 c17 14 32 26 34 28 2 1 0 2 -6 2 -5 0 -20
-12 -34 -27z"/>
<path d="M919 1443 l-24 -28 25 21 c14 12 32 24 40 27 13 5 13 6 -1 6 -8 1
-26 -11 -40 -26z"/>
<path d="M1575 1440 c-3 -6 1 -7 9 -4 18 7 21 14 7 14 -6 0 -13 -4 -16 -10z"/>
<path d="M1535 1394 c31 -45 32 -102 5 -162 -11 -25 -69 -94 -138 -166 -147
-152 -162 -181 -161 -302 0 -87 1 -88 13 -49 24 75 48 109 185 249 155 160
181 201 181 292 0 65 -21 112 -69 151 -38 33 -44 28 -16 -13z m70 -136 c1 -13
-4 -37 -12 -55 -7 -18 -10 -33 -6 -33 5 0 -3 -10 -17 -21 -14 -11 -18 -17 -10
-13 17 9 -17 -36 -38 -49 -7 -5 -10 -11 -8 -15 2 -4 -7 -7 -22 -6 -14 0 -28 6
-30 13 -5 16 18 42 31 34 6 -3 7 -1 3 5 -4 7 -2 12 3 12 6 0 10 3 9 8 -2 4 1
8 6 9 13 2 46 56 40 65 -3 4 -1 8 4 8 14 0 32 48 25 67 -5 15 -3 16 7 6 8 -7
14 -23 15 -35z m-151 -199 c-2 -4 8 -6 23 -3 21 3 24 2 13 -6 -8 -5 -11 -10
-7 -10 11 0 -52 -60 -63 -60 -6 0 -10 5 -10 11 0 6 -7 4 -15 -5 -8 -8 -15 -18
-15 -22 0 -3 7 -1 15 6 8 7 15 8 15 2 0 -15 -26 -33 -35 -24 -5 4 -5 1 -1 -5
4 -7 2 -13 -4 -13 -6 0 -8 -4 -5 -10 3 -5 0 -10 -8 -10 -8 0 -18 -7 -21 -16
-5 -13 -9 -14 -21 -4 -8 6 -19 9 -25 5 -22 -14 51 84 75 99 14 9 23 21 20 26
-4 6 -4 10 -1 10 2 0 12 3 22 7 10 4 15 2 11 -4 -3 -5 0 -10 7 -10 7 0 13 6
13 13 0 7 -4 11 -9 8 -12 -7 -10 3 4 26 9 13 15 16 19 8 4 -7 6 -15 3 -19z
m-139 -178 c3 -5 -6 -22 -20 -37 -13 -14 -22 -30 -20 -35 3 -4 1 -10 -5 -14
-6 -4 -9 9 -6 36 5 47 34 76 51 50z"/>
<path d="M1560 1185 c-7 -9 -11 -17 -9 -20 3 -2 10 5 17 15 14 24 10 26 -8 5z"/>
<path d="M1529 1138 c-5 -18 -6 -38 -1 -34 7 8 12 36 6 36 -2 0 -4 -1 -5 -2z"/>
<path d="M1317 925 c-4 -8 -3 -16 1 -19 4 -3 9 4 9 15 2 23 -3 25 -10 4z"/>
<path d="M1645 1250 c10 -32 8 -90 -4 -123 -21 -55 -77 -124 -216 -267 -171
-176 -185 -201 -184 -326 0 -87 1 -88 13 -49 24 77 50 111 201 265 150 154
194 213 222 293 19 53 18 135 0 179 -17 42 -43 64 -32 28z m19 -152 c-3 -18
-7 -42 -8 -53 -1 -24 -19 -45 -38 -45 -10 0 -9 -3 2 -10 10 -6 11 -10 3 -10
-7 0 -12 -4 -10 -9 4 -17 -16 -16 -26 0 -8 13 -4 24 16 49 15 17 25 36 22 41
-4 5 2 6 11 2 11 -4 15 -3 10 5 -3 6 -2 13 4 17 6 4 8 11 5 16 -4 5 -3 14 0
19 12 19 15 10 9 -22z m-78 -176 c-13 -13 -18 -13 -33 -1 -10 7 -15 10 -11 5
10 -12 -11 -48 -23 -40 -6 4 -5 12 3 21 12 15 11 15 -9 3 -19 -12 -20 -15 -6
-26 15 -10 14 -12 -3 -23 -16 -10 -16 -12 -1 -7 22 7 22 1 -2 -25 -32 -35 -34
-37 -91 -90 -30 -28 -54 -55 -52 -61 2 -6 -4 -8 -12 -5 -10 4 -19 -4 -28 -23
-8 -20 -16 -26 -24 -19 -8 6 -11 3 -10 -12 0 -12 -5 -24 -13 -27 -11 -4 -12 1
-7 19 4 13 8 30 8 37 1 7 8 10 17 7 12 -5 13 -3 4 6 -9 9 -6 17 12 37 13 14
22 29 19 33 -2 4 1 11 7 15 8 5 10 2 5 -7 -4 -8 -1 -6 8 5 16 20 41 12 32 -11
-3 -8 -1 -11 4 -8 5 3 8 20 6 38 -3 27 4 39 53 87 31 30 71 67 90 82 19 16 31
28 27 28 -4 0 -4 5 0 12 5 8 13 4 26 -12 17 -21 17 -25 4 -38z m-36 -42 c-6
-12 -14 -20 -17 -17 -2 3 1 14 8 26 17 26 24 19 9 -9z m-170 -110 c0 -5 -2
-10 -4 -10 -3 0 -8 5 -11 10 -3 6 -1 10 4 10 6 0 11 -4 11 -10z m-100 -194 c0
-3 -4 -8 -10 -11 -5 -3 -10 -1 -10 4 0 6 5 11 10 11 6 0 10 -2 10 -4z"/>
<path d="M1626 1033 c-6 -14 -5 -15 5 -6 7 7 10 15 7 18 -3 3 -9 -2 -12 -12z"/>
<path d="M1440 836 c0 -2 8 -10 18 -17 15 -13 16 -12 3 4 -13 16 -21 21 -21
13z"/>
<path d="M1418 812 c8 -5 14 -13 14 -17 0 -4 -6 -12 -14 -17 -10 -8 -10 -9 2
-5 8 2 15 12 15 22 0 10 -7 20 -15 22 -12 4 -12 3 -2 -5z"/>
<path d="M1309 687 c-9 -21 -9 -21 5 -3 8 10 19 15 25 12 5 -4 12 -3 15 2 2 4
-4 9 -15 9 -11 1 -24 -8 -30 -20z"/>
<path d="M1159 1113 c-13 -16 -12 -17 4 -4 9 7 17 15 17 17 0 8 -8 3 -21 -13z"/>
<path d="M1079 1033 c-13 -16 -12 -17 4 -4 9 7 17 15 17 17 0 8 -8 3 -21 -13z"/>
<path d="M1697 1007 c-9 -62 -45 -131 -102 -195 -27 -30 -43 -56 -39 -63 4 -7
3 -9 -3 -6 -6 4 -19 -1 -29 -11 -57 -53 -254 -262 -254 -269 0 -5 26 -8 58 -8
l57 0 113 115 c134 136 176 193 202 279 20 64 25 149 11 186 -6 15 -9 8 -14
-28z m-21 -149 c-1 -13 -8 -36 -14 -51 -7 -16 -12 -32 -12 -37 0 -5 -9 -14
-20 -20 -14 -8 -20 -8 -20 0 0 6 -5 8 -11 4 -8 -5 -6 -10 5 -16 18 -10 16 -14
-47 -79 -21 -22 -42 -37 -48 -34 -5 4 -6 -2 -2 -11 4 -12 3 -15 -5 -10 -7 4
-12 1 -12 -8 0 -8 -5 -18 -12 -22 -7 -5 -8 -3 -3 6 5 9 4 11 -3 6 -7 -4 -12
-13 -12 -19 0 -22 -71 -79 -91 -74 -21 6 -26 -9 -6 -16 6 -2 0 -4 -14 -3 -18
1 -26 6 -25 19 1 9 5 17 10 16 5 0 12 5 16 11 4 7 13 9 19 6 6 -4 8 -13 4 -19
-4 -7 0 -6 10 2 18 14 24 26 8 17 -5 -3 -15 2 -22 11 -10 12 -10 14 -1 9 6 -4
12 -3 12 2 0 5 11 10 25 10 22 0 24 -3 13 -16 -12 -14 -11 -14 9 -1 19 11 20
15 8 22 -8 4 -20 5 -25 2 -22 -14 -8 14 24 49 20 20 37 32 41 26 4 -6 11 -8
16 -4 6 4 6 11 -1 19 -14 17 13 27 52 20 15 -3 29 -1 32 3 3 5 -5 8 -17 7 -32
-3 -38 4 -27 25 7 12 16 17 27 13 10 -4 14 -2 10 4 -4 6 3 21 14 34 12 13 28
34 36 46 9 14 20 20 31 16 15 -6 16 -5 2 12 -8 10 -10 16 -3 12 7 -4 14 1 18
13 8 27 14 25 11 -2z"/>
<path d="M1627 807 c-3 -8 1 -14 8 -14 7 0 11 6 8 14 -3 7 -6 13 -8 13 -2 0
-5 -6 -8 -13z"/>
<path d="M1575 710 c-3 -5 -1 -10 4 -10 6 0 11 5 11 10 0 6 -2 10 -4 10 -3 0
-8 -4 -11 -10z"/>
<path d="M1460 611 c0 -7 -5 -9 -12 -5 -6 4 -8 3 -4 -4 3 -5 0 -13 -6 -15 -8
-4 -9 -6 -2 -6 15 -1 39 28 30 36 -3 3 -6 1 -6 -6z"/>
<path d="M1014 968 l-19 -23 23 19 c21 18 27 26 19 26 -2 0 -12 -10 -23 -22z"/>
<path d="M712 506 l-244 -43 -172 -169 c-95 -93 -174 -173 -175 -177 0 -5 7
-6 17 -3 61 18 739 128 794 128 54 0 76 -5 118 -28 49 -27 90 -69 90 -93 0 -6
3 -11 8 -11 4 0 7 58 7 130 l0 130 -73 0 -73 0 3 43 3 42 68 0 c61 0 67 2 67
21 0 11 -12 31 -26 45 -41 39 -127 36 -412 -15z m348 13 c0 -6 9 -8 19 -4 11
3 26 -1 37 -12 17 -17 15 -18 -46 -25 -70 -8 -80 -16 -80 -69 0 -48 15 -59 81
-59 l58 0 3 -84 c2 -68 1 -82 -10 -74 -7 6 -10 18 -7 26 5 13 3 13 -11 1 -15
-12 -19 -11 -32 9 -9 14 -24 22 -44 22 -24 0 -29 3 -24 16 5 14 4 15 -9 4 -11
-9 -19 -10 -26 -3 -6 6 -31 6 -72 0 -34 -5 -70 -9 -80 -9 -9 1 -16 -2 -13 -6
2 -4 -8 -7 -22 -8 -15 0 -36 -4 -46 -9 -13 -6 -17 -5 -12 3 4 7 -4 6 -20 -3
-19 -10 -33 -11 -46 -4 -10 6 -18 6 -18 1 0 -11 -147 -35 -161 -26 -5 3 -9 0
-9 -6 0 -8 -14 -11 -39 -8 -22 2 -37 0 -35 -4 5 -8 -11 -11 -58 -11 -16 0 -28
-2 -28 -6 0 -3 -11 -7 -25 -8 -14 -1 -36 -3 -50 -4 -15 -1 -22 -6 -18 -13 4
-8 3 -8 -6 0 -13 12 -5 44 11 44 5 0 7 -4 4 -8 -3 -5 1 -9 9 -9 12 0 12 3 3
14 -16 20 10 37 32 20 13 -11 13 -10 1 5 -11 15 -11 21 -1 33 7 8 17 15 23 15
6 0 2 -7 -9 -16 -18 -14 -18 -15 3 -4 13 6 22 14 20 18 -3 10 39 63 50 63 4
-1 8 2 9 7 1 15 85 93 94 87 6 -4 9 -1 8 6 -2 8 16 17 47 24 28 7 61 15 75 19
20 6 22 5 10 -4 -12 -9 -10 -10 10 -4 14 4 33 8 43 8 9 0 17 3 17 7 0 13 38
17 51 5 9 -8 10 -8 4 3 -6 10 -2 11 15 6 13 -4 20 -3 17 2 -3 5 13 8 39 7 26
-2 42 1 39 6 -3 6 4 10 17 9 13 0 48 4 78 8 82 12 130 13 130 2z"/>
<path d="M803 473 c9 -2 25 -2 35 0 9 3 1 5 -18 5 -19 0 -27 -2 -17 -5z"/>
<path d="M459 383 c-13 -16 -12 -17 4 -4 16 13 21 21 13 21 -2 0 -10 -8 -17
-17z"/>
<path d="M1102 271 c-11 -7 -11 -9 0 -14 9 -3 15 1 15 9 0 8 -1 14 -1 14 -1 0
-7 -4 -14 -9z"/>
<path d="M1050 266 c0 -2 7 -7 16 -10 8 -3 12 -2 9 4 -6 10 -25 14 -25 6z"/>
<path d="M675 240 c-3 -6 1 -7 9 -4 18 7 21 14 7 14 -6 0 -13 -4 -16 -10z"/>
<path d="M1416 400 c-130 -135 -176 -203 -176 -262 l0 -33 19 30 c44 71 111
106 205 107 34 0 156 -16 271 -36 116 -21 282 -50 370 -65 88 -16 162 -27 165
-24 2 2 -72 80 -165 173 l-170 170 -175 30 c-96 17 -185 32 -196 35 -17 4 -47
-22 -148 -125z m163 88 c8 -8 11 -8 8 -2 -4 7 3 12 18 12 14 0 22 -5 19 -10
-4 -6 2 -7 15 -3 12 4 21 2 21 -4 0 -6 7 -11 16 -11 8 0 13 4 10 9 -4 5 3 7
15 4 13 -4 17 -8 9 -13 -6 -4 1 -7 17 -7 40 0 133 -10 166 -18 29 -8 137 -101
137 -119 0 -5 -7 -1 -16 10 -15 18 -15 18 -4 -3 6 -14 16 -20 25 -17 10 4 15
0 15 -11 0 -9 4 -14 9 -11 12 8 54 -40 47 -53 -4 -6 -1 -9 6 -6 8 3 33 -14 56
-39 46 -49 51 -58 25 -52 -42 9 -62 19 -58 26 3 5 -7 5 -22 1 -16 -4 -52 -2
-83 5 -30 6 -82 15 -115 18 -33 4 -73 11 -90 16 -16 5 -41 11 -55 12 -14 2
-31 7 -37 11 -7 5 -13 4 -13 -1 0 -5 -19 -3 -42 5 -24 8 -63 16 -88 18 -25 2
-45 4 -45 5 0 1 -30 4 -67 5 -36 2 -71 6 -77 9 -6 4 -22 -5 -36 -20 -15 -16
-23 -20 -19 -11 5 13 2 16 -10 11 -9 -3 -13 -10 -10 -15 3 -5 -3 -12 -13 -16
-10 -4 -24 -14 -31 -22 -11 -14 -11 -13 -2 7 6 12 15 22 21 22 6 0 7 5 4 10
-3 6 -1 10 5 10 6 0 8 5 4 12 -4 7 -3 8 4 4 7 -4 12 -1 12 7 0 8 7 20 15 27
12 10 18 10 33 -1 15 -13 16 -12 3 4 -12 15 -11 20 4 37 10 11 24 20 32 20 7
0 13 5 13 11 0 5 4 8 9 4 5 -3 13 0 17 6 5 8 3 9 -6 4 -8 -5 -11 -3 -8 6 3 8
11 13 17 12 6 -2 10 0 9 5 -4 9 74 90 88 91 5 1 16 -5 23 -11z m-184 -228 c-3
-5 -12 -10 -18 -10 -7 0 -6 4 3 10 19 12 23 12 15 0z"/>
<path d="M1550 470 c6 -11 13 -20 16 -20 2 0 0 9 -6 20 -6 11 -13 20 -16 20
-2 0 0 -9 6 -20z"/>
<path d="M1484 408 c0 -16 2 -16 18 -1 10 9 18 17 18 17 0 1 -8 2 -18 2 -10 0
-18 -8 -18 -18z"/>
<path d="M1939 397 c6 -8 9 -16 6 -19 -3 -2 2 -5 10 -5 13 0 13 3 -2 19 -19
21 -31 25 -14 5z"/>
<path d="M1380 326 c0 -2 7 -7 16 -10 8 -3 12 -2 9 4 -6 10 -25 14 -25 6z"/>
<path d="M1510 280 c-9 -6 -10 -10 -3 -10 6 0 15 5 18 10 8 12 4 12 -15 0z"/>
<path d="M1628 263 c7 -3 16 -2 19 1 4 3 -2 6 -13 5 -11 0 -14 -3 -6 -6z"/>
<path d="M2083 255 c0 -8 4 -12 9 -9 5 3 6 10 3 15 -9 13 -12 11 -12 -6z"/>
<path d="M2175 390 c-23 -25 -13 -67 20 -82 35 -16 75 12 75 52 0 48 -61 68
-95 30z m73 -2 c15 -15 16 -54 2 -63 -10 -6 -12 0 -14 40 -1 11 -9 21 -18 23
-15 3 -18 -4 -17 -35 0 -30 2 -34 9 -18 5 11 9 17 9 13 1 -3 4 -13 7 -22 8
-21 -14 -21 -38 1 -32 29 -16 73 27 73 12 0 26 -5 33 -12z m-18 -18 c0 -5 -4
-10 -10 -10 -5 0 -10 5 -10 10 0 6 5 10 10 10 6 0 10 -4 10 -10z"/>
<path d="M1241 298 l0 -73 20 54 c10 30 26 63 36 73 15 17 14 18 -20 18 l-37
0 1 -72z"/>
<path d="M2305 91 c-3 -5 -2 -12 3 -15 5 -3 9 1 9 9 0 17 -3 19 -12 6z"/>
</g>
</svg>
